<?xml version="1.0" encoding="UTF-8" standalone="no"?>
<!-- Created with Inkscape (http://www.inkscape.org/) -->

<svg
   xmlns:dc="http://purl.org/dc/elements/1.1/"
   xmlns:cc="http://creativecommons.org/ns#"
   xmlns:rdf="http://www.w3.org/1999/02/22-rdf-syntax-ns#"
   xmlns:svg="http://www.w3.org/2000/svg"
   xmlns="http://www.w3.org/2000/svg"
   xmlns:sodipodi="http://sodipodi.sourceforge.net/DTD/sodipodi-0.dtd"
   xmlns:inkscape="http://www.inkscape.org/namespaces/inkscape"
   width="648.72827"
   height="58.839664"
   viewBox="0 0 173.00493 11.095036"
   version="1.1"
   id="svg8071"
   inkscape:version="0.92.2 (5c3e80d, 2017-08-06)"
   sodipodi:docname="gallium_final_03.svg"
   inkscape:export-filename="/home/slee2/visual/gallium_final_01.svg.png"
   inkscape:export-xdpi="96"
   inkscape:export-ydpi="96">
  <defs
     id="defs8065" />
  <sodipodi:namedview
     id="base"
     pagecolor="#ffffff"
     bordercolor="#666666"
     borderopacity="1.0"
     inkscape:pageopacity="0.0"
     inkscape:pageshadow="2"
     inkscape:zoom="1.4"
     inkscape:cx="314.63908"
     inkscape:cy="62.151969"
     inkscape:document-units="mm"
     inkscape:current-layer="layer1"
     showgrid="false"
     units="px"
     inkscape:window-width="1440"
     inkscape:window-height="881"
     inkscape:window-x="536"
     inkscape:window-y="1440"
     inkscape:window-maximized="0"
     showguides="true"
     inkscape:guide-bbox="true"
     showborder="true"
     inkscape:measure-start="157.331,28.7893"
     inkscape:measure-end="178.797,28.7893" />
  <metadata
     id="metadata8068">
    <rdf:RDF>
      <cc:Work
         rdf:about="">
        <dc:format>image/svg+xml</dc:format>
        <dc:type
           rdf:resource="http://purl.org/dc/dcmitype/StillImage" />
        <dc:title></dc:title>
      </cc:Work>
    </rdf:RDF>
  </metadata>
  <g
     inkscape:label="Layer 1"
     inkscape:groupmode="layer"
     id="layer1"
     transform="translate(-7.5798828,-368.98529)">
    <path
       inkscape:connector-curvature="0"
       d="m 178.25077,382.1528 c 0.38382,0 0.65475,-0.15804 0.69991,-0.63217 l 1.55787,-11.62756 c 0.2032,-1.46755 -0.0226,-2.12231 -0.4064,-2.46098 -0.42898,-0.4064 -1.33209,-0.6096 -2.98027,-0.6096 -1.6256,0 -2.73191,0.18063 -3.31893,0.51929 -0.63218,0.36125 -1.17405,0.99342 -1.85138,2.19005 l -4.71876,8.06026 c -0.4064,0.65476 -0.67733,0.92569 -1.49013,0.92569 -0.74507,0 -0.88053,-0.24835 -0.85796,-0.97084 l 0.0226,-7.54098 c 0.0452,-1.49013 -0.18062,-2.21262 -0.6096,-2.59644 -0.45155,-0.42898 -1.37724,-0.6096 -2.82222,-0.6096 -1.73849,0 -2.77707,0.27093 -3.36409,0.63217 -0.65475,0.38383 -1.15147,1.016 -1.73849,2.32551 l -5.37351,11.71787 c -0.2032,0.45156 0.0452,0.67733 0.36125,0.67733 h 1.24177 c 1.10631,0 1.78365,-0.31608 2.21263,-1.33208 l 4.53813,-10.18258 c 0.4064,-0.92569 0.74507,-1.15147 1.55787,-1.15147 0.69991,0 0.92568,0.2032 0.92568,1.016 l -0.0452,7.76676 c -0.0452,1.24177 0.15804,1.89653 0.51929,2.28035 0.47413,0.4064 1.51271,0.56445 2.91253,0.56445 1.6256,0 2.52871,-0.2032 3.18347,-0.56445 0.42898,-0.24835 1.03858,-0.92569 1.60302,-1.96426 l 4.76391,-8.15058 c 0.4064,-0.65476 0.67733,-0.94827 1.49013,-0.94827 0.8128,0 0.99343,0.31609 0.92569,0.92569 l -1.39982,10.13742 c -0.15804,1.19662 0.22578,1.60302 1.49013,1.60302 z m -26.93424,-14.8336 c 0.0903,-0.31608 -0.0226,-0.42897 -0.36124,-0.42897 h -0.63218 c -1.85138,0 -2.30293,0.13546 -2.70933,1.49013 l -1.87396,6.47982 c -0.58702,2.07716 -1.19662,3.11574 -2.032,3.74791 -0.85795,0.63218 -2.32551,0.92569 -4.78649,0.92569 -2.50613,0 -4.08657,-0.33866 -4.49297,-0.90311 -0.38383,-0.49671 -0.31609,-1.64818 0.33866,-3.8608 l 1.8288,-6.2992 c 0.4064,-1.49013 -0.0452,-1.58044 -1.85138,-1.58044 h -0.72248 c -0.24836,0 -0.45156,0.11289 -0.54187,0.4064 l -2.25778,7.90222 c -0.85795,2.91253 -0.67733,4.28978 0.0226,5.26062 0.8128,1.19662 3.00284,1.91911 7.36035,1.91911 3.72534,0 6.2992,-0.63218 7.5184,-1.6256 1.2192,-0.99342 1.96427,-2.16746 2.93512,-5.53155 z m -22.78097,-0.0903 c 0.0903,-0.2032 0.0452,-0.33866 -0.15805,-0.33866 h -2.14489 c -0.76764,0 -1.08373,0.24835 -1.28693,1.016 l -3.99627,13.90791 c -0.0677,0.18062 0,0.33866 0.24836,0.33866 h 2.09973 c 0.76765,0 1.03858,-0.22577 1.26436,-1.016 z m -27.09545,14.29174 c -0.13547,0.51929 0.27093,0.6096 0.51929,0.6096 1.87395,0.0677 5.4864,0.0677 8.51182,0.0677 3.63502,0 5.82507,-0.0452 6.45724,-0.27093 0.74507,-0.24836 1.73849,-1.6256 1.73849,-2.25778 0,-0.22578 -0.15804,-0.4064 -0.49671,-0.38382 -1.46755,0.13546 -4.04142,0.18062 -7.63129,0.18062 -1.80622,0 -3.68018,-0.0226 -4.24462,-0.0226 -0.63218,-0.0226 -0.8128,-0.15804 -0.67733,-0.67733 l 3.11573,-10.85991 c 0.24836,-0.88054 0,-1.016 -0.8128,-1.016 h -1.94169 c -0.29351,0 -0.38382,0.13546 -0.45155,0.33866 z m -19.667363,0 c -0.135467,0.51929 0.270933,0.6096 0.519288,0.6096 1.873956,0.0677 5.486402,0.0677 8.511822,0.0677 3.63502,0 5.82507,-0.0452 6.45725,-0.27093 0.74506,-0.24836 1.73848,-1.6256 1.73848,-2.25778 0,-0.22578 -0.15804,-0.4064 -0.49671,-0.38382 -1.46755,0.13546 -4.04142,0.18062 -7.63129,0.18062 -1.80622,0 -3.68017,-0.0226 -4.24462,-0.0226 -0.632176,-0.0226 -0.812798,-0.15804 -0.677332,-0.67733 l 3.115732,-10.85991 c 0.24836,-0.88054 0,-1.016 -0.8128,-1.016 h -1.94169 c -0.293508,0 -0.383819,0.13546 -0.451553,0.33866 z m -4.280961,-10.5664 c -0.225778,-2.12231 -0.587023,-3.02543 -1.061156,-3.43183 -0.564444,-0.49671 -1.761067,-0.76764 -3.951111,-0.76764 -2.212622,0 -3.544711,0.29351 -4.357511,0.79022 -0.654756,0.42898 -1.467556,1.24178 -2.935111,3.34151 l -7.179734,10.27289 c -0.270933,0.4064 -0.361244,0.54187 -0.361244,0.67734 0,0.13546 0.09031,0.31608 0.361244,0.31608 h 1.670756 c 1.241778,0 1.693333,-0.22577 2.348089,-1.19662 l 1.964266,-2.93511 c 0.496711,-0.67733 0.790223,-0.79022 1.670756,-0.79022 h 7.811911 c 0.903111,0 1.174045,0.18062 1.2192,0.76764 l 0.338667,3.02543 c 0.09031,0.88053 0.361244,1.12888 1.715911,1.12888 h 1.490133 c 0.248356,0 0.4064,-0.15804 0.428978,-0.27093 0.04516,-0.15804 0,-0.22578 -0.02258,-0.54187 z m -3.138312,3.34151 c -0.06773,0.24835 -0.270933,0.42898 -0.835377,0.42898 h -6.457245 c -0.541867,0 -0.654755,-0.0903 -0.587022,-0.38383 0.04515,-0.15804 0.338667,-0.56444 0.654755,-1.03857 l 1.196623,-1.76107 c 0.745066,-1.08373 1.128889,-1.49013 1.535289,-1.73849 0.338666,-0.18062 1.016,-0.33867 2.009422,-0.33867 0.970844,0 1.580444,0.0903 1.8288,0.31609 0.225778,0.22578 0.383822,0.74507 0.474133,1.69334 l 0.180622,1.64817 c 0.04516,0.63218 0.04516,0.99343 0,1.17405 z m -17.243778,0.0903 c 0.180622,-0.69991 -0.09031,-0.85796 -0.722489,-0.85796 h -5.6896 c -0.767644,0 -1.151467,0.0226 -1.603022,0.22578 -0.564445,0.24836 -1.444978,1.4224 -1.444978,1.8288 0,0.27093 0.180622,0.38382 0.541867,0.38382 h 4.312355 c 0.519289,0 0.790223,0.0677 0.677334,0.54187 l -0.6096,2.05458 c -0.135467,0.49671 -0.428978,0.56444 -1.106311,0.67733 -0.903112,0.18062 -2.506134,0.36125 -4.154312,0.36125 -2.799644,0 -4.199466,-0.27094 -4.809066,-0.97085 -0.541867,-0.65475 -0.6096,-2.032 0.06773,-4.24462 0.564444,-1.96427 1.490133,-3.31893 2.551289,-3.97369 1.038578,-0.67733 2.8448,-0.99342 6.096,-0.99342 2.551289,0 5.192889,0.24835 6.412089,0.36124 0.361244,0.0452 0.541867,-0.15804 0.541867,-0.4064 0,-0.6096 -0.474134,-1.64818 -1.128889,-2.032 -0.677334,-0.4064 -2.573867,-0.65475 -5.8928,-0.65475 -4.244623,0 -6.660445,0.51929 -8.173156,1.53529 -1.535289,1.03857 -2.799644,2.59644 -3.747911,5.93795 -0.835378,2.79965 -0.745067,5.23805 0.180622,6.38951 0.993422,1.15147 2.935111,1.80622 7.5184,1.80622 2.980267,0 5.350934,-0.31608 6.953956,-0.74506 0.903111,-0.24836 1.309511,-0.54187 1.535289,-1.37725 z"
       style="font-style:normal;font-variant:normal;font-weight:normal;font-stretch:normal;font-size:22.57777786px;line-height:1.25;font-family:'Biome Pro';-inkscape-font-specification:'Biome Pro';letter-spacing:0px;word-spacing:0px;fill:#000000;fill-opacity:1;stroke:none;stroke-width:0.26458332"
       id="path8771"
       inkscape:export-xdpi="96"
       inkscape:export-ydpi="96" />
    <path
       style="font-style:normal;font-variant:normal;font-weight:normal;font-stretch:normal;font-size:22.57777786px;line-height:1.25;font-family:'Biome Pro';-inkscape-font-specification:'Biome Pro';letter-spacing:0px;word-spacing:0px;fill:#000000;fill-opacity:1;stroke:none;stroke-width:0.26458332"
       d="m 19.31163,373.45675 c -0.767645,0 -1.151146,0.0224 -1.602702,0.22553 -0.564443,0.24836 -1.445404,1.42289 -1.445404,1.82929 0,0.27093 0.180979,0.38335 0.542223,0.38335 2.069262,-0.002 11.317682,0.002 13.383655,0.002 0.767651,0 1.151144,-0.0224 1.602705,-0.22553 0.564438,-0.24836 1.445402,-1.42288 1.445402,-1.82928 0,-0.27093 -0.180982,-0.38336 -0.542223,-0.38336 -2.069254,0.002 -11.317677,-0.002 -13.383656,-0.002 z"
       id="path1411"
       inkscape:connector-curvature="0"
       sodipodi:nodetypes="ccscccscc"
       inkscape:export-xdpi="96"
       inkscape:export-ydpi="96" />
    <path
       sodipodi:nodetypes="ccscccscc"
       inkscape:connector-curvature="0"
       id="path1427"
       d="m 14.184788,367.05031 c -0.767645,0 -1.151146,0.0224 -1.602702,0.22553 -0.564443,0.24836 -1.445404,1.42289 -1.445404,1.82929 0,0.27093 0.180979,0.38335 0.542223,0.38335 2.069262,-0.002 11.317682,0.002 13.383655,0.002 0.767651,0 1.151144,-0.0224 1.602705,-0.22553 0.564438,-0.24836 1.445402,-1.42288 1.445402,-1.82928 0,-0.27093 -0.180982,-0.38336 -0.542223,-0.38336 -2.069254,0.002 -11.317677,-0.002 -13.383656,-0.002 z"
       style="font-style:normal;font-variant:normal;font-weight:normal;font-stretch:normal;font-size:22.57777786px;line-height:1.25;font-family:'Biome Pro';-inkscape-font-specification:'Biome Pro';letter-spacing:0px;word-spacing:0px;fill:#000000;fill-opacity:1;stroke:none;stroke-width:0.26458332"
       inkscape:export-xdpi="96"
       inkscape:export-ydpi="96" />
    <path
       style="font-style:normal;font-variant:normal;font-weight:normal;font-stretch:normal;font-size:22.57777786px;line-height:1.25;font-family:'Biome Pro';-inkscape-font-specification:'Biome Pro';letter-spacing:0px;word-spacing:0px;fill:#000000;fill-opacity:1;stroke:none;stroke-width:0.26458332"
       d="m 10.627988,379.66537 c -0.7676442,0 -1.1511452,0.0224 -1.6027012,0.22553 -0.564443,0.24836 -1.445404,1.42289 -1.445404,1.82929 0,0.27093 0.180979,0.38335 0.542223,0.38335 2.0692612,-0.002 6.4854852,0.002 8.5514582,0.002 0.767651,0 1.151144,-0.0224 1.602705,-0.22553 0.564438,-0.24836 1.445402,-1.42288 1.445402,-1.82928 0,-0.27093 -0.180982,-0.38336 -0.542223,-0.38336 -2.069254,0.002 -6.485481,-0.002 -8.55146,-0.002 z"
       id="path1429"
       inkscape:connector-curvature="0"
       sodipodi:nodetypes="ccscccscc"
       inkscape:export-xdpi="96"
       inkscape:export-ydpi="96" />
  </g>
</svg>
